<?xml version="1.0" standalone="no"?>
<!DOCTYPE svg PUBLIC "-//W3C//DTD SVG 20010904//EN"
 "http://www.w3.org/TR/2001/REC-SVG-20010904/DTD/svg10.dtd">
<svg version="1.0" xmlns="http://www.w3.org/2000/svg"
 width="700.000000pt" height="700.000000pt" viewBox="0 0 700.000000 700.000000"
 preserveAspectRatio="xMidYMid meet">
<metadata>
Created by potrace 1.14, written by Peter Selinger 2001-2017
</metadata>
<g transform="translate(0.000000,700.000000) scale(0.100000,-0.100000)"
fill="#000000" stroke="none">
<path d="M1975 6989 c-573 -54 -1135 -358 -1496 -809 -261 -326 -430 -749
-468 -1170 -15 -157 -15 -2863 0 -3020 96 -1053 927 -1883 1984 -1980 152 -14
2862 -13 3015 1 421 38 843 207 1170 468 97 77 253 234 335 336 269 334 435
747 474 1175 15 157 15 2863 0 3020 -38 421 -207 843 -468 1170 -77 97 -234
253 -336 335 -334 269 -746 435 -1175 474 -140 13 -2900 13 -3035 0z m1530
-1780 c307 -26 578 -116 804 -267 111 -74 290 -252 362 -362 189 -284 275
-580 286 -981 11 -371 -42 -659 -168 -928 -204 -433 -581 -717 -1074 -810
-190 -36 -313 -41 -972 -41 l-643 0 0 1700 0 1700 643 0 c356 0 695 -5 762
-11z"/>
<path d="M2820 3520 l0 -1080 278 0 c388 0 512 19 687 105 158 77 262 184 341
350 81 172 114 349 114 620 0 280 -33 464 -114 630 -84 173 -177 269 -341 350
-172 86 -298 105 -687 105 l-278 0 0 -1080z"/>
</g>
</svg>
